<svg width="70" height="70" viewBox="0 0 70 70" fill="none" xmlns="http://www.w3.org/2000/svg">
<path d="M41.5625 37.1875V32.8125C41.5625 32.5224 41.4473 32.2442 41.2421 32.0391C41.037 31.834 40.7588 31.7188 40.4688 31.7188H36.0938C35.8037 31.7188 35.5255 31.834 35.3204 32.0391C35.1152 32.2442 35 32.5224 35 32.8125V37.1875C35 37.4776 35.1152 37.7558 35.3204 37.9609C35.5255 38.166 35.8037 38.2812 36.0938 38.2812H40.4688C40.7588 38.2812 41.037 38.166 41.2421 37.9609C41.4473 37.7558 41.5625 37.4776 41.5625 37.1875ZM39.375 36.0938H37.1875V33.9062H39.375V36.0938Z" fill="black"/>
<path d="M8.74998 56.875C9.42826 56.8741 10.0897 56.6634 10.6434 56.2718C11.1972 55.8801 11.6163 55.3267 11.8431 54.6875H25.1562C25.2999 54.6875 25.4421 54.6592 25.5748 54.6042C25.7075 54.5493 25.8281 54.4687 25.9296 54.3672L30.3046 49.9922C30.4089 50.0419 30.5158 50.0861 30.6247 50.1246V52.5H32.8122V50.1244C33.246 49.9711 33.6427 49.7284 33.9766 49.4118C34.3104 49.0953 34.5739 48.712 34.75 48.287C34.9261 47.862 35.0108 47.4046 34.9985 46.9447C34.9863 46.4848 34.8775 46.0327 34.6791 45.6176L36.5468 43.75H37.1875V47.0312H39.375V43.75H40.4687V47.0312C40.4687 47.2138 40.5144 47.3935 40.6017 47.5539C40.6889 47.7142 40.8149 47.8502 40.9682 47.9494L42.0258 48.634C41.777 49.0508 41.6239 49.5177 41.5775 50.0009C41.5311 50.4842 41.5926 50.9717 41.7575 51.4282C41.9225 51.8848 42.1868 52.299 42.5314 52.641C42.876 52.9829 43.2922 53.2441 43.75 53.4056V56.4914L39.6146 61.6601C39.4594 61.8542 39.3749 62.0953 39.375 62.3437V67.8125H41.5625V62.7274L45.6978 57.5586C45.853 57.3646 45.9376 57.1235 45.9375 56.875V53.4056C46.5805 53.1766 47.1366 52.7535 47.5289 52.1948L59.562 59.9808C59.7721 60.1167 60.0225 60.1764 60.2713 60.15C60.5201 60.1237 60.7523 60.0128 60.9292 59.8359L64.2105 56.5547C64.2142 56.551 64.2173 56.5469 64.2209 56.5432C64.2296 56.5341 64.2376 56.5247 64.246 56.5158C64.2664 56.4934 64.2858 56.4704 64.304 56.4466C64.3125 56.4356 64.3207 56.4246 64.3286 56.4134C64.3468 56.3877 64.3636 56.3615 64.3793 56.3345C64.3848 56.3252 64.3908 56.3162 64.396 56.3072C64.416 56.2707 64.4339 56.2332 64.4497 56.1947C64.4528 56.1872 64.4549 56.1794 64.4578 56.1718C64.47 56.1403 64.4806 56.1084 64.4897 56.0761C64.4934 56.0625 64.4965 56.0499 64.4996 56.0366C64.5066 56.0074 64.5123 55.9778 64.5169 55.948C64.5189 55.9352 64.5211 55.9226 64.5226 55.9096C64.528 55.867 64.5309 55.8242 64.5312 55.7812V36.0937C64.5313 35.3901 64.4941 34.6869 64.4199 33.9872V33.9865C63.9802 29.9101 62.2793 26.0726 59.5542 23.0092C56.8292 19.9458 53.2161 17.8093 49.2187 16.8976V13.125H47.0312V16.5279C43.2067 16.1009 39.3409 16.803 35.9108 18.5475L31.7187 14.8212V8.56185C32.4485 8.30384 33.0636 7.79615 33.4552 7.12852C33.8468 6.46088 33.9899 5.67628 33.859 4.9134C33.7281 4.15051 33.3317 3.45846 32.7399 2.95955C32.1481 2.46065 31.399 2.18701 30.625 2.18701C29.8509 2.18701 29.1018 2.46065 28.51 2.95955C27.9182 3.45846 27.5219 4.15051 27.391 4.9134C27.2601 5.67628 27.4031 6.46088 27.7948 7.12852C28.1864 7.79615 28.8015 8.30384 29.5312 8.56185V15.3125C29.5312 15.4669 29.564 15.6196 29.6273 15.7605C29.6906 15.9014 29.783 16.0273 29.8985 16.1299L33.9251 19.7094C32.6127 20.5841 31.4106 21.6138 30.3447 22.7762L25.1562 18.1066V15.1244C25.886 14.8663 26.5011 14.3587 26.8927 13.691C27.2843 13.0234 27.4274 12.2388 27.2965 11.4759C27.1656 10.713 26.7692 10.021 26.1774 9.52205C25.5856 9.02315 24.8365 8.74951 24.0625 8.74951C23.2884 8.74951 22.5393 9.02315 21.9475 9.52205C21.3557 10.021 20.9594 10.713 20.8285 11.4759C20.6976 12.2388 20.8406 13.0234 21.2323 13.691C21.6239 14.3587 22.239 14.8663 22.9687 15.1244V18.5937C22.9687 18.747 23.001 18.8986 23.0633 19.0387C23.1257 19.1787 23.2168 19.3041 23.3308 19.4067L28.9548 24.4684C28.5179 25.065 28.1149 25.6858 27.7477 26.3278C27.6192 26.2765 27.4821 26.2501 27.3437 26.25H17.5V28.4375H26.702C25.8185 30.5201 25.3054 32.7409 25.1859 35H11.8431C11.5851 34.2702 11.0774 33.6552 10.4098 33.2635C9.74213 32.8719 8.95753 32.7288 8.19465 32.8597C7.43176 32.9906 6.73971 33.387 6.2408 33.9788C5.7419 34.5706 5.46826 35.3197 5.46826 36.0937C5.46826 36.8678 5.7419 37.6169 6.2408 38.2087C6.73971 38.8005 7.43176 39.1968 8.19465 39.3277C8.95753 39.4586 9.74213 39.3156 10.4098 38.924C11.0774 38.5323 11.5851 37.9172 11.8431 37.1875H25.1562V38.2812C25.1562 38.4928 25.2176 38.6998 25.3328 38.8772C25.4481 39.0546 25.6123 39.1947 25.8056 39.2806L28.1366 40.3166L24.7033 43.75H21.875V45.9375H25.1562C25.2999 45.9375 25.4421 45.9092 25.5748 45.8542C25.7075 45.7993 25.8281 45.7187 25.9296 45.6172L30.2783 41.2685L34.1942 43.009L33.1325 44.0706C32.5203 43.7779 31.8324 43.6822 31.1635 43.7968C30.4946 43.9114 29.8778 44.2305 29.3979 44.7103C28.918 45.1902 28.5987 45.807 28.484 46.4758C28.3693 47.1447 28.4649 47.8326 28.7575 48.4449L24.7033 52.5H11.8431C11.6426 51.9328 11.29 51.4317 10.8239 51.0514C10.3578 50.6711 9.79607 50.4262 9.20019 50.3436C8.60432 50.261 7.99719 50.3437 7.44518 50.5829C6.89318 50.822 6.41753 51.2083 6.07025 51.6995C5.72296 52.1907 5.5174 52.7679 5.47603 53.3681C5.43466 53.9682 5.55908 54.5682 5.83568 55.1024C6.11228 55.6367 6.53043 56.0845 7.0444 56.3972C7.55838 56.7098 8.1484 56.8751 8.74998 56.875ZM30.625 6.56248C30.4087 6.56248 30.1972 6.49833 30.0173 6.37815C29.8375 6.25797 29.6973 6.08715 29.6145 5.88729C29.5317 5.68743 29.51 5.46752 29.5522 5.25535C29.5944 5.04318 29.6986 4.8483 29.8516 4.69533C30.0045 4.54237 30.1994 4.4382 30.4116 4.396C30.6238 4.35379 30.8437 4.37545 31.0435 4.45824C31.2434 4.54102 31.4142 4.68121 31.5344 4.86107C31.6546 5.04094 31.7187 5.25241 31.7187 5.46873C31.7184 5.75871 31.6031 6.03672 31.398 6.24177C31.193 6.44682 30.915 6.56215 30.625 6.56248ZM24.0625 13.125C23.8462 13.125 23.6347 13.0608 23.4548 12.9406C23.275 12.8205 23.1348 12.6496 23.052 12.4498C22.9692 12.2499 22.9475 12.03 22.9897 11.8179C23.0319 11.6057 23.1361 11.4108 23.2891 11.2578C23.442 11.1049 23.6369 11.0007 23.8491 10.9585C24.0613 10.9163 24.2812 10.938 24.481 11.0207C24.6809 11.1035 24.8517 11.2437 24.9719 11.4236C25.0921 11.6034 25.1562 11.8149 25.1562 12.0312C25.1559 12.3212 25.0406 12.5992 24.8355 12.8043C24.6305 13.0093 24.3525 13.1247 24.0625 13.125ZM8.74998 37.1875C8.53366 37.1875 8.32219 37.1233 8.14233 37.0032C7.96246 36.883 7.82227 36.7122 7.73949 36.5123C7.6567 36.3124 7.63504 36.0925 7.67725 35.8804C7.71945 35.6682 7.82362 35.4733 7.97658 35.3203C8.12955 35.1674 8.32443 35.0632 8.5366 35.021C8.74877 34.9788 8.96868 35.0005 9.16854 35.0832C9.3684 35.166 9.53922 35.3062 9.6594 35.4861C9.77958 35.6659 9.84373 35.8774 9.84373 36.0937C9.8434 36.3837 9.72807 36.6617 9.52302 36.8668C9.31797 37.0718 9.03996 37.1872 8.74998 37.1875ZM44.8437 51.4062C44.6274 51.4062 44.4159 51.3421 44.2361 51.2219C44.0562 51.1017 43.916 50.9309 43.8332 50.731C43.7505 50.5312 43.7288 50.3113 43.771 50.0991C43.8132 49.8869 43.9174 49.692 44.0703 49.5391C44.2233 49.3861 44.4182 49.282 44.6303 49.2397C44.8425 49.1975 45.0624 49.2192 45.2623 49.302C45.4621 49.3848 45.633 49.525 45.7532 49.7048C45.8733 49.8847 45.9375 50.0962 45.9375 50.3125C45.9372 50.6025 45.8218 50.8805 45.6168 51.0855C45.4117 51.2906 45.1337 51.4059 44.8437 51.4062ZM60.008 57.6638L48.1061 49.9629C48.0543 49.477 47.8945 49.0089 47.6386 48.5927C47.3826 48.1765 47.0369 47.8228 46.6267 47.5574C46.2164 47.2919 45.7521 47.1215 45.2676 47.0586C44.783 46.9956 44.2906 47.0417 43.8261 47.1935L42.6562 46.4362V42.6562C42.6562 42.6289 42.654 42.6015 42.6521 42.5752C43.5631 42.0479 44.3722 41.3617 45.0411 40.5491L46.1212 42.1692C46.2211 42.319 46.3564 42.4419 46.5152 42.5268C46.6739 42.6118 46.8512 42.6562 47.0312 42.6562H51.5566C52.3529 43.5524 53.3136 44.2877 54.3867 44.8223C55.4657 45.3572 56.3732 46.1838 57.0063 47.2083C57.6394 48.2328 57.9728 49.4142 57.9687 50.6185V53.5937C57.9687 53.7968 58.0253 53.9959 58.1321 54.1687C58.2389 54.3415 58.3916 54.4811 58.5733 54.572L61.5918 56.0809L60.008 57.6638ZM62.3437 40.4687H60.4145L56.875 38.699V37.5438L62.3437 39.1062V40.4687ZM62.3069 34.9737C62.3152 35.105 62.3221 35.2366 62.3275 35.3686C62.3296 35.4253 62.3324 35.4822 62.3342 35.5391C62.3399 35.7239 62.3437 35.9089 62.3437 36.0937V36.8312L56.082 35.0421C55.9192 34.9955 55.7478 34.9874 55.5814 35.0183C55.4149 35.0493 55.2579 35.1185 55.1227 35.2204C54.9875 35.3224 54.8778 35.4543 54.8023 35.6058C54.7268 35.7574 54.6875 35.9244 54.6875 36.0937V39.375C54.6875 39.5781 54.744 39.7772 54.8508 39.95C54.9576 40.1227 55.1104 40.2624 55.292 40.3532L59.667 42.5407C59.8189 42.6167 59.9864 42.6563 60.1562 42.6562H62.3437V54.0115L60.1562 52.9178V50.6185C60.1616 49.0077 59.7155 47.4277 58.8686 46.0576C58.0217 44.6874 56.8079 43.582 55.3648 42.8665C54.1723 42.2753 53.1694 41.3618 52.4697 40.2295C51.77 39.0973 51.4016 37.7917 51.4062 36.4607V25.8322L53.6248 26.9415C53.7478 28.3295 54.2535 29.6562 55.0856 30.7739C55.9176 31.8917 57.0435 32.7566 58.3379 33.2727L62.2998 34.8667C62.3024 34.9023 62.3048 34.938 62.3069 34.9737ZM48.1601 18.9104C51.2859 19.5227 54.1868 20.9723 56.5531 23.1044C58.9195 25.2365 60.6625 27.9711 61.5962 31.0164C61.7304 31.4607 61.8459 31.9115 61.9445 32.3658L59.1546 31.2432C58.1565 30.8452 57.301 30.1562 56.6995 29.2658C56.0979 28.3753 55.778 27.3246 55.7812 26.25C55.7812 26.0469 55.7247 25.8478 55.6179 25.675C55.5111 25.5022 55.3583 25.3626 55.1767 25.2718L50.8017 23.0843C50.6349 23.0009 50.4496 22.9615 50.2634 22.9699C50.0771 22.9782 49.8961 23.0341 49.7375 23.1321C49.5789 23.2301 49.448 23.367 49.3572 23.5299C49.2664 23.6927 49.2187 23.876 49.2187 24.0625V36.4607C49.2167 37.8464 49.5223 39.2154 50.1134 40.4687H47.6165L46.3007 38.4949C46.7684 37.424 47.0166 36.2702 47.0306 35.1018C47.0447 33.9333 46.8243 32.7739 46.3826 31.6921C45.9408 30.6102 45.2867 29.6279 44.4588 28.8033C43.6309 27.9786 42.646 27.3283 41.5625 26.8908V24.5655L48.1601 18.9104ZM44.8437 18.5937C44.9496 18.5937 45.0551 18.5982 45.1608 18.6002L40.4824 22.6107L37.684 20.1233C39.9364 19.1156 42.3761 18.5943 44.8437 18.5937ZM35.6222 21.2178L39.375 24.5537V26.3208C37.8708 26.1274 36.3423 26.3318 34.9419 26.9138L31.9706 24.2402C33.0447 23.0714 34.2732 22.0546 35.6222 21.2178ZM29.7937 38.6594L27.3437 37.5703V37.1875H29.8081C29.905 37.5597 30.0266 37.9251 30.172 38.2812L29.7937 38.6594ZM29.5312 35H27.3779C27.4803 33.2851 27.8378 31.5951 28.4388 29.9857L30.172 31.7187C29.7483 32.7608 29.5306 33.8751 29.5312 35ZM29.4022 27.8553C29.7565 27.192 30.1533 26.5522 30.59 25.9399L32.9528 28.0664C32.3261 28.5486 31.7671 29.1128 31.2908 29.744L29.4022 27.8553ZM31.7187 35C31.7187 33.702 32.1036 32.4333 32.8247 31.3541C33.5458 30.2749 34.5707 29.4337 35.7699 28.937C36.969 28.4403 38.2885 28.3104 39.5615 28.5636C40.8345 28.8168 42.0038 29.4418 42.9216 30.3596C43.8394 31.2774 44.4644 32.4467 44.7176 33.7197C44.9708 34.9927 44.8409 36.3122 44.3442 37.5113C43.8475 38.7105 43.0064 39.7354 41.9272 40.4565C40.848 41.1776 39.5792 41.5625 38.2812 41.5625C36.5413 41.5605 34.8733 40.8685 33.643 39.6382C32.4127 38.4079 31.7207 36.7399 31.7187 35ZM31.7187 45.9375C31.9351 45.9375 32.1465 46.0016 32.3264 46.1218C32.5063 46.242 32.6464 46.4128 32.7292 46.6127C32.812 46.8125 32.8337 47.0324 32.7915 47.2446C32.7493 47.4568 32.6451 47.6517 32.4921 47.8046C32.3392 47.9576 32.1443 48.0618 31.9321 48.104C31.7199 48.1462 31.5 48.1245 31.3002 48.0417C31.1003 47.9589 30.9295 47.8188 30.8093 47.6389C30.6891 47.459 30.625 47.2476 30.625 47.0312C30.6253 46.7413 30.7406 46.4632 30.9457 46.2582C31.1507 46.0531 31.4287 45.9378 31.7187 45.9375ZM8.74998 52.5C8.9663 52.5 9.17777 52.5641 9.35764 52.6843C9.5375 52.8045 9.67769 52.9753 9.76047 53.1752C9.84326 53.375 9.86492 53.5949 9.82271 53.8071C9.78051 54.0193 9.67634 54.2142 9.52338 54.3671C9.37041 54.5201 9.17553 54.6243 8.96336 54.6665C8.75119 54.7087 8.53128 54.687 8.33142 54.6042C8.13156 54.5214 7.96074 54.3813 7.84056 54.2014C7.72038 54.0215 7.65623 53.8101 7.65623 53.5937C7.65656 53.3038 7.77189 53.0257 7.97694 52.8207C8.18199 52.6156 8.46 52.5003 8.74998 52.5Z" fill="black"/>
<path d="M8.74998 48.125C9.42826 48.1241 10.0897 47.9134 10.6434 47.5218C11.1972 47.1301 11.6163 46.5767 11.8431 45.9375H19.6875V43.75H11.8431C11.6426 43.1828 11.29 42.6817 10.8239 42.3014C10.3578 41.9211 9.79607 41.6762 9.20019 41.5936C8.60432 41.511 7.99719 41.5938 7.44518 41.8329C6.89318 42.072 6.41753 42.4583 6.07025 42.9495C5.72296 43.4407 5.5174 44.018 5.47603 44.6181C5.43466 45.2183 5.55908 45.8182 5.83568 46.3525C6.11228 46.8867 6.53043 47.3346 7.0444 47.6472C7.55838 47.9598 8.1484 48.1251 8.74998 48.125ZM8.74998 43.75C8.9663 43.75 9.17777 43.8141 9.35764 43.9343C9.5375 44.0545 9.67769 44.2253 9.76047 44.4252C9.84326 44.625 9.86492 44.845 9.82271 45.0571C9.78051 45.2693 9.67634 45.4642 9.52338 45.6172C9.37041 45.7701 9.17553 45.8743 8.96336 45.9165C8.75119 45.9587 8.53128 45.937 8.33142 45.8542C8.13156 45.7715 7.96074 45.6313 7.84056 45.4514C7.72038 45.2715 7.65623 45.0601 7.65623 44.8438C7.65656 44.5538 7.77189 44.2758 7.97694 44.0707C8.18199 43.8657 8.46 43.7503 8.74998 43.75Z" fill="black"/>
<path d="M8.74998 30.625C9.42826 30.6241 10.0897 30.4134 10.6434 30.0218C11.1972 29.6301 11.6163 29.0767 11.8431 28.4375H15.3125V26.25H11.8431C11.6426 25.6828 11.29 25.1817 10.8239 24.8014C10.3578 24.4211 9.79607 24.1762 9.20019 24.0936C8.60432 24.011 7.99719 24.0937 7.44518 24.3329C6.89318 24.572 6.41753 24.9583 6.07025 25.4495C5.72296 25.9407 5.5174 26.518 5.47603 27.1181C5.43466 27.7183 5.55908 28.3182 5.83568 28.8525C6.11228 29.3867 6.53043 29.8346 7.0444 30.1472C7.55838 30.4598 8.1484 30.6251 8.74998 30.625ZM8.74998 26.25C8.9663 26.25 9.17777 26.3141 9.35764 26.4343C9.5375 26.5545 9.67769 26.7253 9.76047 26.9252C9.84326 27.125 9.86492 27.345 9.82271 27.5571C9.78051 27.7693 9.67634 27.9642 9.52338 28.1172C9.37041 28.2701 9.17553 28.3743 8.96336 28.4165C8.75119 28.4587 8.53128 28.437 8.33142 28.3542C8.13156 28.2715 7.96074 28.1313 7.84056 27.9514C7.72038 27.7715 7.65623 27.5601 7.65623 27.3438C7.65656 27.0538 7.77189 26.7758 7.97694 26.5707C8.18199 26.3657 8.46 26.2503 8.74998 26.25Z" fill="black"/>
<path d="M39.375 49.2188H37.1875V51.4062H39.375V49.2188Z" fill="black"/>
<path d="M35 62.7274L39.1353 57.5586C39.2906 57.3646 39.3751 57.1235 39.375 56.875V53.5938H37.1875V56.4914L33.0522 61.6602C32.897 61.8542 32.8124 62.0953 32.8125 62.3438V67.8125H35V62.7274Z" fill="black"/>
<path d="M32.8125 56.875V54.6875H30.625V56.4914L26.4897 61.6602C26.3345 61.8542 26.2499 62.0953 26.25 62.3438V67.8125H28.4375V62.7274L32.5728 57.5586C32.728 57.3646 32.8126 57.1235 32.8125 56.875Z" fill="black"/>
<path d="M49.2188 10.9375V8.56185C49.9485 8.30384 50.5636 7.79615 50.9552 7.12852C51.3469 6.46088 51.4899 5.67628 51.359 4.9134C51.2281 4.15051 50.8317 3.45846 50.2399 2.95955C49.6482 2.46065 48.899 2.18701 48.125 2.18701C47.351 2.18701 46.6019 2.46065 46.0101 2.95955C45.4183 3.45846 45.0219 4.15051 44.891 4.9134C44.7601 5.67628 44.9031 6.46088 45.2948 7.12852C45.6864 7.79615 46.3015 8.30384 47.0313 8.56185V10.9375H49.2188ZM48.125 4.37498C48.3413 4.37498 48.5528 4.43913 48.7327 4.55931C48.9125 4.67949 49.0527 4.85031 49.1355 5.05017C49.2183 5.25003 49.2399 5.46994 49.1977 5.68211C49.1555 5.89428 49.0514 6.08916 48.8984 6.24213C48.7454 6.39509 48.5506 6.49926 48.3384 6.54146C48.1262 6.58367 47.9063 6.56201 47.7064 6.47922C47.5066 6.39644 47.3358 6.25625 47.2156 6.07638C47.0954 5.89652 47.0313 5.68505 47.0313 5.46873C47.0316 5.17875 47.1469 4.90074 47.352 4.69569C47.557 4.49064 47.835 4.3753 48.125 4.37498Z" fill="black"/>
</svg>
