<svg width="36" height="36" viewBox="0 0 36 36" fill="none" xmlns="http://www.w3.org/2000/svg">
<path fill-rule="evenodd" clip-rule="evenodd" d="M18 33.75C26.6985 33.75 33.75 26.6985 33.75 18C33.75 9.3015 26.6985 2.25 18 2.25C9.3015 2.25 2.25 9.3015 2.25 18C2.25 26.6985 9.3015 33.75 18 33.75Z" fill="#32AB45"/>
<path d="M18 10.125L6.1875 18.1676L18 25.875L29.8125 18.1676L18 10.125Z" fill="#FFE70E"/>
<path d="M22.5 18C22.5 20.4853 20.4853 22.5 18 22.5C15.5147 22.5 13.5 20.4853 13.5 18C13.5 15.5147 15.5147 13.5 18 13.5C20.4853 13.5 22.5 15.5147 22.5 18Z" fill="#2A2FAF"/>
<path fill-rule="evenodd" clip-rule="evenodd" d="M14.1618 15.6487C14.672 15.531 15.2035 15.4688 15.7494 15.4688C18.6219 15.4688 21.0921 17.1913 22.1834 19.6598C21.9196 20.3243 21.5021 20.9109 20.9748 21.3761C20.4585 18.9645 18.3151 17.1563 15.7494 17.1563C14.951 17.1563 14.1935 17.3313 13.5132 17.6452C13.57 16.9174 13.7999 16.2382 14.1618 15.6487Z" fill="#FBFBFB"/>
</svg>
