<svg width="70" height="70" viewBox="0 0 70 70" fill="none" xmlns="http://www.w3.org/2000/svg">
<path d="M6.5625 24.0625H63.4375" stroke="black" stroke-width="2" stroke-miterlimit="10" stroke-linecap="round" stroke-linejoin="round"/>
<path d="M15.3125 19.6875C14.6562 19.6875 14.2188 19.4687 13.7813 19.0312C13.3438 18.5937 13.125 18.1562 13.125 17.5C13.125 16.8438 13.3438 16.4063 13.7813 15.9688L14 15.75C14.2188 15.75 14.2187 15.5312 14.4375 15.5312C14.6562 15.3125 14.6563 15.3125 14.875 15.3125C15.0938 15.3125 15.5312 15.3125 15.75 15.3125C15.9687 15.3125 15.9688 15.3125 16.1875 15.5312C16.4063 15.5312 16.4062 15.75 16.625 15.75L16.8437 15.9688C17.0625 16.1875 17.2812 16.4062 17.2812 16.625C17.5 16.8437 17.5 17.2812 17.5 17.5C17.5 17.7188 17.5 18.1562 17.2812 18.375C17.2812 18.5937 17.0625 18.8125 16.8437 19.0312C16.4062 19.4687 15.9688 19.6875 15.3125 19.6875Z" fill="black"/>
<path d="M21.875 19.6875C21.2188 19.6875 20.7813 19.4687 20.3438 19.0312C19.9063 18.5937 19.6875 18.1562 19.6875 17.5C19.6875 17.2812 19.6875 16.8437 19.9063 16.625C20.125 16.4062 20.125 16.1875 20.3438 15.9687C20.5625 15.75 20.7813 15.5312 21 15.5312C21.875 15.0937 22.75 15.3125 23.4062 15.9687C23.625 16.1875 23.8437 16.4062 23.8437 16.625C24.0625 16.8437 24.0625 17.2812 24.0625 17.5C24.0625 18.1562 23.8437 18.5937 23.4062 19.0312C22.9687 19.4687 22.5312 19.6875 21.875 19.6875Z" fill="black"/>
<path d="M28.4375 19.6875C28.2188 19.6875 27.7813 19.6875 27.5625 19.4687C27.3438 19.25 27.125 19.25 26.9063 19.0312C26.6875 18.8125 26.4688 18.5937 26.4688 18.375C26.25 18.1562 26.25 17.7187 26.25 17.5C26.25 17.2812 26.25 16.8437 26.4688 16.625C26.6875 16.4062 26.6875 16.1875 26.9063 15.9688C27.7813 15.0938 29.0937 15.0938 29.9687 15.9688C30.1875 16.1875 30.4062 16.4062 30.4062 16.625C30.625 16.8437 30.625 17.2812 30.625 17.5C30.625 17.7187 30.625 18.1562 30.4062 18.375C30.1875 18.5937 30.1875 18.8125 29.9687 19.0312C29.5312 19.4687 29.0938 19.6875 28.4375 19.6875Z" fill="black"/>
<path d="M59.0625 10.9375H10.9375C8.53125 10.9375 6.5625 12.9062 6.5625 15.3125V54.6875C6.5625 57.0938 8.53125 59.0625 10.9375 59.0625H59.0625C61.4688 59.0625 63.4375 57.0938 63.4375 54.6875V15.3125C63.4375 12.9062 61.4688 10.9375 59.0625 10.9375Z" stroke="black" stroke-width="2" stroke-miterlimit="10" stroke-linecap="round" stroke-linejoin="round"/>
<path d="M24.0625 35L17.5 41.5625L24.0625 48.125" stroke="black" stroke-width="2" stroke-miterlimit="10" stroke-linecap="round" stroke-linejoin="round"/>
<path d="M45.9375 35L52.5 41.5625L45.9375 48.125" stroke="black" stroke-width="2" stroke-miterlimit="10" stroke-linecap="round" stroke-linejoin="round"/>
<path d="M39.375 32.8125L30.625 50.3125" stroke="black" stroke-width="2" stroke-miterlimit="10" stroke-linecap="round" stroke-linejoin="round"/>
</svg>
