<svg width="16" height="16" viewBox="0 0 16 16" fill="none" xmlns="http://www.w3.org/2000/svg">
<path d="M1.86665 6.39707H0.799997C0.652805 6.39707 0.533325 6.27741 0.533325 6.12993C0.533325 5.98246 0.652805 5.86279 0.799997 5.86279H1.86665C2.01384 5.86279 2.13332 5.98246 2.13332 6.12993C2.13332 6.27741 2.01384 6.39707 1.86665 6.39707Z" fill="#FFE100"/>
<path d="M1.86667 4.5272H0.266671C0.11948 4.5272 0 4.40753 0 4.26006C0 4.11259 0.11948 3.99292 0.266671 3.99292H1.86667C2.01386 3.99292 2.13334 4.11259 2.13334 4.26006C2.13334 4.40753 2.01386 4.5272 1.86667 4.5272Z" fill="#FFE100"/>
<path d="M1.86666 8.26707H1.33332C1.18613 8.26707 1.06665 8.1474 1.06665 7.99993C1.06665 7.85246 1.18613 7.73279 1.33332 7.73279H1.86666C2.01386 7.73279 2.13334 7.85246 2.13334 7.99993C2.13334 8.1474 2.01386 8.26707 1.86666 8.26707Z" fill="#FFE100"/>
<path d="M14.9334 12.5413H4.00003C3.55817 12.5413 3.20001 12.1825 3.20001 11.7398V4.26004C3.20001 3.8174 3.55814 3.45862 4.00003 3.45862H14.9334C15.3752 3.45862 15.7334 3.81737 15.7334 4.26004V11.7398C15.7333 12.1825 15.3752 12.5413 14.9334 12.5413Z" fill="#FFE100"/>
<path d="M14.9333 3.45862H14.1333C14.5752 3.45862 14.9333 3.81737 14.9333 4.26004V11.7398C14.9333 12.1825 14.5752 12.5413 14.1333 12.5413H14.9333C15.3752 12.5413 15.7333 12.1825 15.7333 11.7398V4.26004C15.7333 3.8174 15.3752 3.45862 14.9333 3.45862Z" fill="#FFA800"/>
<path d="M3.73336 3.45862H4.53338C4.09152 3.45862 3.73336 3.81737 3.73336 4.26004V11.7398C3.73336 12.1825 4.09149 12.5413 4.53338 12.5413H3.73336C3.29151 12.5413 2.93335 12.1825 2.93335 11.7398V4.26004C2.93335 3.8174 3.29151 3.45862 3.73336 3.45862Z" fill="white"/>
<path d="M7.90624 8.23274C8.7041 8.99863 9.96252 8.99863 10.7604 8.23274L15.4934 3.68875C15.3492 3.54663 15.1516 3.45874 14.9334 3.45874H3.73343C3.51502 3.45874 3.31744 3.54663 3.17316 3.68875L7.90624 8.23274Z" fill="#FDCC00"/>
<path d="M8.09077 8.0399C8.78757 8.7088 9.87902 8.7088 10.5758 8.0399L15.055 3.73982C15.0156 3.73075 14.9748 3.72593 14.9334 3.72593H3.73341C3.69181 3.72593 3.65103 3.73075 3.61156 3.73982L8.09077 8.0399ZM9.33342 9.07612C8.75341 9.07612 8.17368 8.85946 7.72169 8.42565L2.98864 3.88194C2.93637 3.83171 2.90678 3.76281 2.9065 3.6904C2.90597 3.61827 2.93478 3.54881 2.98623 3.49833C3.18728 3.30037 3.45264 3.19165 3.73341 3.19165H14.9334C15.2142 3.19165 15.4796 3.30037 15.6804 3.49833C15.7318 3.54909 15.7606 3.61827 15.7601 3.69065C15.7596 3.76278 15.73 3.83171 15.678 3.88191L10.9449 8.42565C10.4932 8.8595 9.91315 9.07612 9.33342 9.07612Z" fill="black"/>
<path d="M3.61159 12.26C3.65106 12.2694 3.69185 12.2742 3.7332 12.2742H14.9335C14.9748 12.2742 15.0156 12.2694 15.0551 12.26L11.0028 8.36999L10.9449 8.42554C10.0412 9.29321 8.6252 9.29321 7.72172 8.42554L7.66386 8.36999L3.61159 12.26ZM14.9335 12.8085H3.7332C3.45267 12.8085 3.18734 12.6994 2.98626 12.5015C2.93481 12.451 2.906 12.3816 2.90625 12.3095C2.90678 12.2373 2.93637 12.1681 2.98864 12.1182L7.47932 7.80713C7.58251 7.70801 7.74518 7.70801 7.8484 7.80713L8.0908 8.04008C8.78735 8.70873 9.87905 8.70845 10.5759 8.0398L10.8183 7.80713C10.9214 7.70801 11.0841 7.70801 11.1873 7.80713L15.678 12.1182C15.73 12.1681 15.7596 12.2371 15.7601 12.3095C15.7607 12.3816 15.7318 12.4508 15.6804 12.5015C15.4793 12.6995 15.2143 12.8085 14.9335 12.8085Z" fill="black"/>
<path d="M1.86665 6.12998H0.799997C0.652805 6.12998 0.533325 6.01032 0.533325 5.86284C0.533325 5.71537 0.652805 5.5957 0.799997 5.5957H1.86665C2.01384 5.5957 2.13332 5.71537 2.13332 5.86284C2.13332 6.01032 2.01384 6.12998 1.86665 6.12998Z" fill="black"/>
<path d="M1.86667 4.26011H0.266671C0.11948 4.26011 0 4.14044 0 3.99297C0 3.8455 0.11948 3.72583 0.266671 3.72583H1.86667C2.01386 3.72583 2.13334 3.8455 2.13334 3.99297C2.13334 4.14044 2.01386 4.26011 1.86667 4.26011Z" fill="black"/>
<path d="M1.86666 7.99998H1.33332C1.18613 7.99998 1.06665 7.88031 1.06665 7.73284C1.06665 7.58537 1.18613 7.4657 1.33332 7.4657H1.86666C2.01386 7.4657 2.13334 7.58537 2.13334 7.73284C2.13334 7.88031 2.01386 7.99998 1.86666 7.99998Z" fill="black"/>
<path d="M3.19997 8.26714C3.19997 8.41461 3.08049 8.53428 2.9333 8.53428C2.78611 8.53428 2.66663 8.41461 2.66663 8.26714C2.66663 8.11967 2.78611 8 2.9333 8C3.08049 8 3.19997 8.11967 3.19997 8.26714Z" fill="black"/>
<path d="M14.9333 12.8084H3.73331C3.14505 12.8084 2.66666 12.3292 2.66666 11.7399V9.33564C2.66666 9.18816 2.78614 9.0685 2.93333 9.0685C3.08052 9.0685 3.2 9.18816 3.2 9.33564V11.7399C3.2 12.0345 3.43921 12.2741 3.73334 12.2741H14.9334C15.2275 12.2741 15.4667 12.0345 15.4667 11.7399V4.26006C15.4667 3.96539 15.2275 3.72578 14.9334 3.72578H3.73331C3.43918 3.72578 3.19997 3.96539 3.19997 4.26006V7.19857C3.19997 7.34605 3.08049 7.46571 2.9333 7.46571C2.78611 7.46571 2.66663 7.34605 2.66663 7.19857V4.26006C2.66663 3.67076 3.14501 3.19153 3.73328 3.19153H14.9333C15.5216 3.19153 15.9999 3.67076 15.9999 4.26006V11.7399C16 12.3292 15.5216 12.8084 14.9333 12.8084Z" fill="black"/>
</svg>
