<svg width="30" height="30" viewBox="0 0 30 30" fill="none" xmlns="http://www.w3.org/2000/svg">
<path d="M15 30C23.2843 30 30 23.2843 30 15C30 6.71573 23.2843 0 15 0C6.71573 0 0 6.71573 0 15C0 23.2843 6.71573 30 15 30Z" fill="#F0F0F0"/>
<path d="M3.10077 5.86768C1.9225 7.40066 1.03405 9.16756 0.516724 11.087H8.32012L3.10077 5.86768Z" fill="#0052B4"/>
<path d="M29.4832 11.087C28.9659 9.16762 28.0774 7.40073 26.8992 5.86774L21.68 11.087H29.4832Z" fill="#0052B4"/>
<path d="M0.516724 18.9131C1.03411 20.8325 1.92256 22.5994 3.10077 24.1324L8.31995 18.9131H0.516724Z" fill="#0052B4"/>
<path d="M24.1323 3.10082C22.5993 1.92256 20.8325 1.03411 18.913 0.516724V8.32006L24.1323 3.10082Z" fill="#0052B4"/>
<path d="M5.86768 26.8991C7.40066 28.0774 9.16756 28.9659 11.087 29.4832V21.68L5.86768 26.8991Z" fill="#0052B4"/>
<path d="M11.0869 0.516724C9.1675 1.03411 7.40061 1.92256 5.86768 3.10077L11.0869 8.32V0.516724Z" fill="#0052B4"/>
<path d="M18.9131 29.4832C20.8325 28.9659 22.5994 28.0774 24.1323 26.8992L18.9131 21.68V29.4832Z" fill="#0052B4"/>
<path d="M21.68 18.9131L26.8992 24.1324C28.0774 22.5995 28.9659 20.8325 29.4832 18.9131H21.68Z" fill="#0052B4"/>
<path d="M29.873 13.0435H16.9566H16.9566V0.126973C16.3161 0.0435938 15.6631 0 15 0C14.3368 0 13.6839 0.0435938 13.0435 0.126973V13.0434V13.0434H0.126973C0.0435938 13.6839 0 14.3369 0 15C0 15.6632 0.0435938 16.3161 0.126973 16.9565H13.0434H13.0434V29.873C13.6839 29.9564 14.3368 30 15 30C15.6631 30 16.3161 29.9565 16.9565 29.873V16.9566V16.9566H29.873C29.9564 16.3161 30 15.6632 30 15C30 14.3369 29.9564 13.6839 29.873 13.0435Z" fill="#D80027"/>
<path d="M18.9131 18.9131L25.6066 25.6066C25.9144 25.2989 26.2081 24.9772 26.4883 24.6436L20.7577 18.9131H18.9131V18.9131Z" fill="#D80027"/>
<path d="M11.0869 18.9131H11.0868L4.39337 25.6066C4.70111 25.9144 5.02284 26.2081 5.35636 26.4883L11.0869 20.7576V18.9131Z" fill="#D80027"/>
<path d="M11.0869 11.0871V11.0869L4.39341 4.39337C4.08556 4.70111 3.79188 5.02284 3.51169 5.35636L9.24233 11.087H11.0869V11.0871Z" fill="#D80027"/>
<path d="M18.9131 11.087L25.6066 4.39341C25.2989 4.08556 24.9772 3.79189 24.6436 3.51175L18.9131 9.2424V11.087Z" fill="#D80027"/>
</svg>
