<svg width="16" height="16" viewBox="0 0 16 16" fill="none" xmlns="http://www.w3.org/2000/svg">
<path d="M8.00007 0C3.58233 0 0 3.67232 0 8.20254C0 11.8266 2.29226 14.9013 5.47093 15.9859C5.87075 16.0618 6.01754 15.808 6.01754 15.5913C6.01754 15.3957 6.01012 14.7496 6.00667 14.0642C3.78105 14.5604 3.31141 13.0964 3.31141 13.0964C2.9475 12.1483 2.42315 11.8962 2.42315 11.8962C1.6973 11.3871 2.47786 11.3975 2.47786 11.3975C3.28121 11.4554 3.70421 12.2428 3.70421 12.2428C4.41774 13.4968 5.57572 13.1343 6.03224 12.9247C6.10404 12.3945 6.31137 12.0327 6.54016 11.8279C4.76324 11.6204 2.8953 10.9171 2.8953 7.77413C2.8953 6.8786 3.20782 6.14688 3.71958 5.57245C3.63651 5.36585 3.36268 4.53158 3.79708 3.40174C3.79708 3.40174 4.46887 3.18129 5.99766 4.24253C6.63581 4.06079 7.32019 3.96965 8.00007 3.96652C8.67994 3.96965 9.36485 4.06079 10.0042 4.24253C11.5311 3.18129 12.202 3.40174 12.202 3.40174C12.6375 4.53158 12.3635 5.36585 12.2804 5.57245C12.7934 6.14688 13.1038 6.8786 13.1038 7.77413C13.1038 10.9246 11.2323 11.6183 9.45083 11.8213C9.73778 12.0759 9.99346 12.5751 9.99346 13.3403C9.99346 14.4378 9.98419 15.3211 9.98419 15.5913C9.98419 15.8096 10.1282 16.0654 10.5337 15.9848C13.7107 14.899 16 11.8254 16 8.20254C16 3.67232 12.4182 0 8.00007 0ZM2.99628 11.6847C2.97867 11.7254 2.91614 11.7377 2.85917 11.7097C2.80115 11.6829 2.76856 11.6274 2.78737 11.5865C2.80459 11.5445 2.86725 11.5328 2.92514 11.5609C2.9833 11.5877 3.01642 11.6438 2.99628 11.6847ZM3.3898 12.0447C3.35165 12.081 3.27706 12.0641 3.22645 12.0068C3.17413 11.9496 3.16432 11.8731 3.20301 11.8363C3.24235 11.8001 3.31468 11.817 3.36715 11.8742C3.41947 11.9321 3.42968 12.008 3.3898 12.0447ZM3.65977 12.5053C3.61075 12.5402 3.5306 12.5075 3.48105 12.4346C3.43204 12.3616 3.43204 12.2741 3.48211 12.2391C3.53179 12.2041 3.61075 12.2356 3.66096 12.308C3.70984 12.3821 3.70984 12.4696 3.65977 12.5053ZM4.11633 13.0388C4.07248 13.0884 3.97909 13.0751 3.91073 13.0074C3.84078 12.9413 3.82131 12.8474 3.86529 12.7978C3.90967 12.7481 4.0036 12.7621 4.07248 12.8292C4.1419 12.8952 4.1631 12.9898 4.11633 13.0388ZM4.70641 13.2189C4.68707 13.2831 4.59711 13.3123 4.5065 13.285C4.41602 13.2569 4.3568 13.1817 4.37508 13.1167C4.39389 13.0521 4.48424 13.0217 4.57552 13.0509C4.66587 13.0789 4.72522 13.1536 4.70641 13.2189ZM5.37793 13.2953C5.38019 13.3629 5.30335 13.419 5.20823 13.4202C5.11258 13.4224 5.03521 13.3677 5.03415 13.3011C5.03415 13.2328 5.10927 13.1772 5.20492 13.1756C5.30004 13.1737 5.37793 13.228 5.37793 13.2953ZM6.03763 13.2694C6.04903 13.3354 5.98292 13.4031 5.88846 13.4212C5.7956 13.4386 5.70962 13.3979 5.69783 13.3324C5.6863 13.2647 5.7536 13.197 5.84634 13.1794C5.94093 13.1626 6.02558 13.2023 6.03763 13.2694Z" fill="#161614"/>
</svg>
