<svg width="16" height="16" viewBox="0 0 16 16" fill="none" xmlns="http://www.w3.org/2000/svg">
<path d="M7.99997 0C12.4185 0 16 3.582 16 8.00003C16 12.4181 12.4185 16 7.99997 16C3.58145 16 0 12.418 0 8.00003C0 3.58205 3.5815 0 7.99997 0Z" fill="#0E76A8"/>
<path d="M4.50802 10.992H6.00603V5.99896H4.50802V10.992ZM10.344 5.82601C9.61703 5.82601 8.96653 6.09151 8.50507 6.67753V5.98254H7.00156V10.992H8.50507V8.28303C8.50507 7.71052 9.02958 7.15201 9.68656 7.15201C10.3435 7.15201 10.5056 7.71052 10.5056 8.26902V10.9915H12.0036V8.15753C12.0035 6.189 11.0715 5.82601 10.344 5.82601ZM5.25002 5.49999C5.66403 5.49999 6.00005 5.16397 6.00005 4.74997C6.00005 4.33596 5.66403 4 5.25002 4C4.83602 4 4.5 4.33602 4.5 4.75002C4.5 5.16403 4.83602 5.49999 5.25002 5.49999Z" fill="white"/>
</svg>
