<svg width="70" height="70" viewBox="0 0 70 70" fill="none" xmlns="http://www.w3.org/2000/svg">
<path d="M42.6562 45.9375C41.3583 45.9375 40.0895 46.3224 39.0103 47.0435C37.9311 47.7646 37.09 48.7895 36.5933 49.9886C36.0966 51.1878 35.9666 52.5073 36.2198 53.7802C36.4731 55.0533 37.098 56.2226 38.0159 57.1403C38.9337 58.0582 40.103 58.6832 41.376 58.9364C42.6489 59.1896 43.9684 59.0597 45.1676 58.563C46.3668 58.0663 47.3916 57.2251 48.1127 56.1459C48.8338 55.0667 49.2187 53.798 49.2187 52.5C49.217 50.7601 48.5251 49.0919 47.2947 47.8615C46.0644 46.6312 44.3962 45.9392 42.6562 45.9375ZM42.6562 56.875C41.791 56.875 40.9451 56.6184 40.2256 56.1377C39.5061 55.657 38.9454 54.9736 38.6143 54.1742C38.2831 53.3748 38.1965 52.4952 38.3653 51.6464C38.5341 50.7978 38.9508 50.0183 39.5627 49.4064C40.1745 48.7946 40.954 48.3779 41.8027 48.2091C42.6514 48.0402 43.531 48.1269 44.3304 48.458C45.1299 48.7891 45.8132 49.3499 46.2939 50.0694C46.7746 50.7888 47.0312 51.6347 47.0312 52.5C47.0312 53.6604 46.5703 54.7731 45.7498 55.5936C44.9294 56.4141 43.8166 56.875 42.6562 56.875Z" fill="black"/>
<path d="M20.7813 35C19.267 35 17.7867 35.449 16.5277 36.2903C15.2687 37.1316 14.2873 38.3273 13.7078 39.7263C13.1283 41.1253 12.9767 42.6648 13.2721 44.1499C13.5675 45.6351 14.2968 46.9993 15.3674 48.07C16.4382 49.1408 17.8024 49.87 19.2876 50.1654C20.7727 50.4608 22.3122 50.3092 23.7112 49.7298C25.1102 49.1502 26.3059 48.1689 27.1472 46.9098C27.9885 45.6507 28.4375 44.1705 28.4375 42.6562C28.4352 40.6264 27.6278 38.6804 26.1925 37.245C24.7572 35.8097 22.8112 35.0023 20.7813 35ZM20.7813 48.125C19.6997 48.125 18.6423 47.8043 17.7429 47.2033C16.8437 46.6024 16.1427 45.7483 15.7288 44.749C15.3149 43.7498 15.2065 42.6502 15.4176 41.5893C15.6286 40.5285 16.1495 39.554 16.9143 38.7893C17.6791 38.0244 18.6535 37.5036 19.7143 37.2926C20.7751 37.0815 21.8748 37.1899 22.874 37.6038C23.8733 38.0177 24.7274 38.7186 25.3283 39.6179C25.9293 40.5173 26.25 41.5746 26.25 42.6562C26.2483 44.1061 25.6715 45.4961 24.6464 46.5213C23.6211 47.5465 22.2311 48.1233 20.7813 48.125Z" fill="black"/>
<path d="M48.125 19.8887V13.125H45.9375V19.8887C45.3 20.1142 44.7476 20.531 44.3561 21.0824C43.9645 21.6337 43.7529 22.2925 43.75 22.9687C43.7519 23.456 43.8641 23.9365 44.0781 24.3742L40.7881 27.6642L42.3347 29.2108L45.6258 25.9219C46.0635 26.1359 46.544 26.2481 47.0313 26.25C47.8043 26.2514 48.553 25.9793 49.1446 25.4816C49.7363 24.984 50.1327 24.2931 50.2637 23.5312C50.3948 22.7692 50.2518 21.9856 49.8604 21.3188C49.4689 20.6522 48.8542 20.1456 48.125 19.8887ZM47.0313 24.0625C46.8149 24.0625 46.6035 23.9984 46.4236 23.8782C46.2438 23.758 46.1036 23.5872 46.0208 23.3873C45.938 23.1875 45.9163 22.9675 45.9585 22.7554C46.0007 22.5432 46.1049 22.3483 46.2579 22.1954C46.4108 22.0423 46.6057 21.9382 46.8179 21.896C47.0301 21.8538 47.2499 21.8754 47.4499 21.9582C47.6497 22.041 47.8205 22.1812 47.9407 22.3611C48.0608 22.541 48.125 22.7524 48.125 22.9687C48.125 23.2588 48.0097 23.5371 47.8047 23.7421C47.5996 23.9472 47.3213 24.0625 47.0313 24.0625Z" fill="black"/>
<path d="M67.8125 22.9688C67.8197 19.925 67.1582 16.9166 65.8747 14.1567C64.5912 11.3966 62.7172 8.95229 60.3848 6.99638C58.0525 5.04048 55.3191 3.62079 52.3777 2.83768C49.4363 2.05459 46.3588 1.92723 43.3628 2.46455C40.3667 3.00189 37.5253 4.19083 35.0394 5.94729C32.5534 7.70377 30.4837 9.98489 28.9765 12.6294C27.4693 15.2739 26.5615 18.2172 26.3172 21.2513C26.0728 24.2852 26.498 27.3359 27.5625 30.1875C26.6632 29.6855 25.709 29.2891 24.7188 29.0063L24.0516 24.9813C24.0099 24.7244 23.878 24.4908 23.6796 24.3223C23.4811 24.1539 23.2291 24.0618 22.9688 24.0625H18.5938C18.3334 24.0618 18.0814 24.1539 17.8829 24.3223C17.6845 24.4908 17.5526 24.7244 17.5109 24.9813L16.8438 29.0063C15.8226 29.2953 14.8389 29.7028 13.9125 30.2204L10.5875 27.8469C10.3775 27.695 10.1204 27.6226 9.86195 27.6427C9.60355 27.6627 9.36066 27.7739 9.17657 27.9563L6.08125 31.0516C5.89881 31.2357 5.78766 31.4786 5.76762 31.7371C5.7476 31.9954 5.81998 32.2525 5.97188 32.4625L8.34532 35.7875C7.82771 36.714 7.42026 37.6977 7.13125 38.7188L3.10625 39.386C2.84931 39.4277 2.61565 39.5596 2.44725 39.758C2.27885 39.9565 2.18675 40.2085 2.1875 40.4688V44.8438C2.18675 45.1041 2.27885 45.3561 2.44725 45.5546C2.61565 45.753 2.84931 45.8849 3.10625 45.9266L7.13125 46.5938C7.42026 47.6149 7.82771 48.5986 8.34532 49.525L5.97188 52.8501C5.81998 53.0601 5.7476 53.3172 5.76762 53.5756C5.78766 53.834 5.89881 54.0769 6.08125 54.261L9.17657 57.3563C9.36066 57.5387 9.60355 57.6499 9.86195 57.6699C10.1204 57.69 10.3775 57.6176 10.5875 57.4657L13.9125 55.0922C14.8389 55.6098 15.8226 56.0173 16.8438 56.3063L17.5109 60.3313C17.5526 60.5882 17.6845 60.8218 17.8829 60.9903C18.0814 61.1587 18.3334 61.2508 18.5938 61.25H22.9688C23.2291 61.2508 23.4811 61.1587 23.6796 60.9903C23.878 60.8218 24.0099 60.5882 24.0516 60.3313L24.7188 56.3063C25.7399 56.0173 26.7236 55.6098 27.65 55.0922L30.975 57.4657C31.0933 57.5519 31.2286 57.6119 31.3719 57.6421C31.5152 57.6723 31.6632 57.6717 31.8063 57.6407C31.85 57.75 31.9047 57.8704 31.9594 57.9797L30.1766 60.3532C30.0173 60.5637 29.9396 60.8247 29.9577 61.088C29.9758 61.3513 30.0885 61.5993 30.275 61.786L33.3703 64.8813C33.557 65.0678 33.805 65.1805 34.0683 65.1986C34.3316 65.2168 34.5926 65.139 34.8031 64.9797L37.1766 63.1969C37.7529 63.4942 38.3528 63.7429 38.9703 63.9407L39.3859 66.8719C39.4228 67.1329 39.5527 67.3717 39.7516 67.5445C39.9505 67.7173 40.2053 67.8126 40.4688 67.8126H44.8438C45.1072 67.8126 45.362 67.7173 45.5608 67.5445C45.7598 67.3717 45.8897 67.1329 45.9266 66.8719L46.3422 63.9407C46.9597 63.7429 47.5596 63.4942 48.1359 63.1969L50.5094 64.9797C50.7199 65.139 50.9809 65.2168 51.2442 65.1986C51.5075 65.1805 51.7555 65.0678 51.9422 64.8813L55.0375 61.786C55.224 61.5993 55.3368 61.3513 55.3548 61.088C55.373 60.8247 55.2952 60.5637 55.1359 60.3532L53.3531 57.9797C53.6503 57.4034 53.8991 56.8035 54.0969 56.186L57.0281 55.7704C57.2891 55.7335 57.5279 55.6036 57.7007 55.4047C57.8735 55.2058 57.9688 54.951 57.9688 54.6875V50.3125C57.9688 50.0491 57.8735 49.7943 57.7007 49.5955C57.5279 49.3965 57.2891 49.2666 57.0281 49.2297L54.0969 48.8141C53.8991 48.1966 53.6503 47.5967 53.3531 47.0204L55.1359 44.6469C55.2952 44.4364 55.373 44.1754 55.3548 43.9121C55.3368 43.6488 55.224 43.4008 55.0375 43.2141L54.25 42.4266C58.2247 40.9528 61.6539 38.2991 64.078 34.8213C66.5021 31.3436 67.8051 27.208 67.8125 22.9688ZM31.4891 55.1469L28.3391 52.9047C28.1637 52.7783 27.9547 52.7066 27.7387 52.6988C27.5226 52.691 27.309 52.7475 27.125 52.861C26.012 53.5572 24.7928 54.067 23.5156 54.3704C23.303 54.4174 23.1093 54.5269 22.9592 54.6847C22.8092 54.8425 22.7096 55.0416 22.6734 55.2563L22.0391 59.0625H19.5234L18.8891 55.2563C18.8529 55.0416 18.7533 54.8425 18.6033 54.6847C18.4532 54.5269 18.2595 54.4174 18.0469 54.3704C16.7696 54.067 15.5505 53.5572 14.4375 52.861C14.2534 52.7475 14.0399 52.691 13.8238 52.6988C13.6078 52.7066 13.3988 52.7783 13.2234 52.9047L10.0734 55.1469L8.29063 53.3641L10.5328 50.2141C10.6593 50.0388 10.731 49.8298 10.7387 49.6138C10.7465 49.3976 10.6901 49.1841 10.5766 49C9.88043 47.8871 9.3706 46.668 9.06719 45.3907C9.02014 45.1781 8.91069 44.9843 8.75285 44.8343C8.59502 44.6842 8.39599 44.5847 8.18125 44.5485L4.375 43.9141V41.3985L8.18125 40.7641C8.39599 40.7279 8.59502 40.6284 8.75285 40.4783C8.91069 40.3283 9.02014 40.1346 9.06719 39.9219C9.3706 38.6448 9.88043 37.4255 10.5766 36.3125C10.6901 36.1286 10.7465 35.915 10.7387 35.6988C10.731 35.4828 10.6593 35.2739 10.5328 35.0985L8.29063 31.9485L10.0734 30.1657L13.2234 32.4079C13.3988 32.5343 13.6078 32.606 13.8238 32.6138C14.0399 32.6216 14.2534 32.5651 14.4375 32.4516C15.5505 31.7554 16.7696 31.2456 18.0469 30.9422C18.2595 30.8952 18.4532 30.7857 18.6033 30.6279C18.7533 30.4701 18.8529 30.271 18.8891 30.0563L19.5234 26.25H22.0391L22.6734 30.0563C22.7096 30.271 22.8092 30.4701 22.9592 30.6279C23.1093 30.7857 23.303 30.8952 23.5156 30.9422C24.7928 31.2456 26.012 31.7554 27.125 32.4516C27.309 32.5651 27.5226 32.6216 27.7387 32.6138C27.9547 32.606 28.1637 32.5343 28.3391 32.4079L28.4922 32.3094C29.1472 33.6147 29.9392 34.8466 30.8547 35.9844C30.8792 36.1006 30.9236 36.2116 30.9859 36.3125C31.6841 37.4284 32.194 38.6515 32.4953 39.9329C32.5452 40.1431 32.6558 40.3338 32.8133 40.4817C32.9709 40.6295 33.1683 40.7277 33.3813 40.7641L37.1875 41.3985V43.9141L33.3813 44.5485C33.1666 44.5847 32.9675 44.6842 32.8097 44.8343C32.6518 44.9843 32.5423 45.1781 32.4953 45.3907C32.1919 46.668 31.6821 47.8871 30.9859 49C30.8724 49.1841 30.816 49.3976 30.8237 49.6138C30.8315 49.8298 30.9033 50.0388 31.0297 50.2141L33.2719 53.3641L31.4891 55.1469ZM55.7813 51.2641V53.736L53.0906 54.1188C52.8766 54.1499 52.6764 54.243 52.515 54.387C52.3535 54.5309 52.238 54.7192 52.1828 54.9282C51.9561 55.8372 51.5948 56.7072 51.1109 57.5094C51.0006 57.6956 50.9479 57.9103 50.9596 58.1264C50.9712 58.3425 51.0467 58.5503 51.1766 58.7235L52.8172 60.911L51.0672 62.661L48.8797 61.0204C48.7046 60.8903 48.4949 60.8146 48.277 60.803C48.0592 60.7913 47.8427 60.8441 47.6547 60.9547C46.8572 61.4405 45.9906 61.8018 45.0844 62.0266C44.8753 62.0818 44.6871 62.1975 44.5432 62.3588C44.3993 62.5202 44.306 62.7204 44.275 62.9344L43.8922 65.625H41.4203L41.0375 62.9344C41.0064 62.7204 40.9133 62.5202 40.7693 62.3588C40.6254 62.1975 40.4371 62.0818 40.2281 62.0266C39.322 61.8018 38.4552 61.4405 37.6578 60.9547C37.4705 60.842 37.2536 60.7879 37.0353 60.7996C36.8169 60.8113 36.6071 60.8882 36.4328 61.0204L34.2453 62.661L32.4953 60.911L34.1359 58.7235C34.2694 58.5495 34.3462 58.3387 34.356 58.1196C34.3657 57.9006 34.3081 57.6837 34.1906 57.4985C33.9466 57.0775 33.7345 56.6388 33.5563 56.186L35.4813 54.261C35.6637 54.0769 35.7748 53.834 35.7948 53.5756C35.815 53.3172 35.7426 53.0601 35.5906 52.8501L33.2172 49.525C33.7348 48.5986 34.1423 47.6149 34.4313 46.5938L38.4563 45.9266C38.7132 45.8849 38.9468 45.753 39.1152 45.5546C39.2837 45.3561 39.3758 45.1041 39.375 44.8438V43.236C39.6541 43.1324 39.939 43.0448 40.2281 42.9735C40.385 42.9281 40.5304 42.8498 40.6547 42.7438C42.7151 43.408 44.8664 43.7475 47.0313 43.75H47.1188C47.3032 43.8377 47.4821 43.9363 47.6547 44.0454C47.8281 44.1442 48.0238 44.197 48.2234 44.1985C48.4597 44.1963 48.6893 44.1197 48.8797 43.9797L49.3828 43.6079C50.2225 43.51 51.0554 43.3602 51.8766 43.1594L52.8172 44.0891L51.1766 46.2766C51.0467 46.4498 50.9712 46.6576 50.9596 46.8737C50.9479 47.0898 51.0006 47.3045 51.1109 47.4907C51.5948 48.2929 51.9561 49.1629 52.1828 50.0719C52.238 50.281 52.3535 50.4692 52.515 50.6131C52.6764 50.757 52.8766 50.8503 53.0906 50.8813L55.7813 51.2641ZM47.0313 41.5625C43.3537 41.5625 39.7588 40.4721 36.7011 38.429C33.6434 36.3858 31.2601 33.4819 29.8528 30.0843C28.4456 26.6868 28.0773 22.9481 28.7947 19.3414C29.5122 15.7345 31.2831 12.4214 33.8835 9.82105C36.4839 7.22067 39.797 5.44979 43.4038 4.73236C47.0106 4.01491 50.7492 4.38312 54.1468 5.79044C57.5444 7.19776 60.4483 9.58097 62.4914 12.6387C64.5345 15.6963 65.625 19.2913 65.625 22.9688C65.618 27.898 63.6568 32.6234 60.1713 36.1089C56.6859 39.5945 51.9605 41.5557 47.0313 41.5625Z" fill="black"/>
<path d="M47.0312 6.5625C43.7864 6.5625 40.6144 7.5247 37.9163 9.32746C35.2184 11.1302 33.1156 13.6925 31.8738 16.6903C30.6321 19.6882 30.3071 22.9869 30.9402 26.1695C31.5733 29.352 33.1358 32.2752 35.4303 34.5697C37.7247 36.8642 40.648 38.4267 43.8305 39.0598C47.0131 39.6928 50.3117 39.3679 53.3096 38.1262C56.3074 36.8844 58.8698 34.7816 60.6725 32.0836C62.4753 29.3856 63.4375 26.2136 63.4375 22.9688C63.4322 18.6191 61.702 14.4492 58.6264 11.3736C55.5508 8.2979 51.3808 6.56771 47.0312 6.5625ZM57.8156 32.2109L56.3172 30.7016L54.764 32.2547L56.2734 33.7531C53.9861 35.7179 51.1315 36.9019 48.125 37.1328V35H45.9375V37.1328C42.9309 36.9019 40.0764 35.7179 37.789 33.7531L39.2984 32.2547L37.7453 30.7016L36.2468 32.2109C34.282 29.9236 33.098 27.069 32.8672 24.0625H35V21.875H32.8672C33.098 18.8685 34.282 16.0139 36.2468 13.7266L37.7453 15.2359L39.2984 13.6828L37.789 12.1844C40.0764 10.2195 42.9309 9.03559 45.9375 8.80469V10.9375H48.125V8.80469C51.1315 9.03559 53.9861 10.2195 56.2734 12.1844L54.764 13.6828L56.3172 15.2359L57.8156 13.7266C59.7804 16.0139 60.9644 18.8685 61.1953 21.875H59.0625V24.0625H61.1953C60.9644 27.069 59.7804 29.9236 57.8156 32.2109Z" fill="black"/>
</svg>
